<mxfile host="" modified="2020-06-17T13:01:47.021Z" agent="5.0 (X11; Linux x86_64) AppleWebKit/537.36 (KHTML, like Gecko) Code/1.46.0 Chrome/78.0.3904.130 Electron/7.3.1 Safari/537.36" etag="IZGaQyWtVY2mHcgWngqc" version="13.1.3">
    <diagram id="6hGFLwfOUW9BJ-s0fimq" name="Page-1">
        <mxGraphModel dx="1174" dy="623" grid="1" gridSize="10" guides="1" tooltips="1" connect="1" arrows="1" fold="1" page="1" pageScale="1" pageWidth="827" pageHeight="1169" math="0" shadow="0">
            <root>
                <mxCell id="0"/>
                <mxCell id="1" parent="0"/>
                <mxCell id="26" value="Worker Node" style="verticalAlign=top;align=left;spacingTop=8;spacingLeft=2;spacingRight=12;shape=cube;size=10;direction=south;fontStyle=4;html=1;" vertex="1" parent="1">
                    <mxGeometry x="85" y="760" width="180" height="120" as="geometry"/>
                </mxCell>
                <mxCell id="22" value="Firewall" style="verticalAlign=top;align=left;spacingTop=8;spacingLeft=2;spacingRight=12;shape=cube;size=10;direction=south;fontStyle=4;html=1;" vertex="1" parent="1">
                    <mxGeometry x="210" y="410" width="460" height="180" as="geometry"/>
                </mxCell>
                <mxCell id="6" style="edgeStyle=orthogonalEdgeStyle;rounded=0;orthogonalLoop=1;jettySize=auto;html=1;exitX=0;exitY=0;exitDx=180;exitDy=185;endArrow=none;endFill=0;exitPerimeter=0;entryX=0;entryY=0;entryDx=0;entryDy=85;entryPerimeter=0;" parent="1" source="22" target="26" edge="1">
                    <mxGeometry relative="1" as="geometry">
                        <mxPoint x="255" y="770" as="targetPoint"/>
                        <Array as="points">
                            <mxPoint x="425" y="590"/>
                            <mxPoint x="425" y="740"/>
                            <mxPoint x="180" y="740"/>
                        </Array>
                    </mxGeometry>
                </mxCell>
                <mxCell id="9" value="Worker VRF" style="edgeLabel;html=1;align=center;verticalAlign=middle;resizable=0;points=[];" parent="6" vertex="1" connectable="0">
                    <mxGeometry x="0.3191" relative="1" as="geometry">
                        <mxPoint x="28.1" y="-20.03" as="offset"/>
                    </mxGeometry>
                </mxCell>
                <mxCell id="13" style="edgeStyle=none;rounded=0;orthogonalLoop=1;jettySize=auto;html=1;entryX=0.31;entryY=0.8;entryDx=0;entryDy=0;entryPerimeter=0;endArrow=none;endFill=0;" parent="1" target="11" edge="1">
                    <mxGeometry relative="1" as="geometry">
                        <mxPoint x="510" y="420" as="sourcePoint"/>
                    </mxGeometry>
                </mxCell>
                <mxCell id="2" value="Firewall-Controller" style="html=1;" parent="1" vertex="1">
                    <mxGeometry x="385" y="440" width="110" height="50" as="geometry"/>
                </mxCell>
                <mxCell id="8" style="edgeStyle=orthogonalEdgeStyle;rounded=0;orthogonalLoop=1;jettySize=auto;html=1;exitX=0;exitY=0;exitDx=0;exitDy=85;endArrow=none;endFill=0;exitPerimeter=0;" parent="1" source="29" edge="1">
                    <mxGeometry relative="1" as="geometry">
                        <mxPoint x="424.9999999999998" y="785" as="sourcePoint"/>
                        <mxPoint x="425" y="590" as="targetPoint"/>
                    </mxGeometry>
                </mxCell>
                <mxCell id="7" style="edgeStyle=orthogonalEdgeStyle;rounded=0;orthogonalLoop=1;jettySize=auto;html=1;exitX=0;exitY=0;exitDx=0;exitDy=85;endArrow=none;endFill=0;exitPerimeter=0;" parent="1" source="30" edge="1">
                    <mxGeometry relative="1" as="geometry">
                        <mxPoint x="425" y="590" as="targetPoint"/>
                        <mxPoint x="594.9999999999998" y="785" as="sourcePoint"/>
                        <Array as="points">
                            <mxPoint x="670" y="740"/>
                            <mxPoint x="425" y="740"/>
                        </Array>
                    </mxGeometry>
                </mxCell>
                <mxCell id="12" style="edgeStyle=none;rounded=0;orthogonalLoop=1;jettySize=auto;html=1;exitX=0.8;exitY=0.8;exitDx=0;exitDy=0;exitPerimeter=0;endArrow=none;endFill=0;" parent="1" source="10" edge="1">
                    <mxGeometry relative="1" as="geometry">
                        <mxPoint x="350" y="420" as="targetPoint"/>
                    </mxGeometry>
                </mxCell>
                <mxCell id="10" value="" style="ellipse;shape=cloud;whiteSpace=wrap;html=1;" parent="1" vertex="1">
                    <mxGeometry x="190" y="280" width="120" height="80" as="geometry"/>
                </mxCell>
                <mxCell id="11" value="" style="ellipse;shape=cloud;whiteSpace=wrap;html=1;" parent="1" vertex="1">
                    <mxGeometry x="550" y="280" width="120" height="80" as="geometry"/>
                </mxCell>
                <mxCell id="14" value="Internet VRF" style="text;html=1;align=center;verticalAlign=middle;resizable=0;points=[];autosize=1;" parent="1" vertex="1">
                    <mxGeometry x="210" y="310" width="80" height="20" as="geometry"/>
                </mxCell>
                <mxCell id="16" value="Legacy VRF" style="text;html=1;align=center;verticalAlign=middle;resizable=0;points=[];autosize=1;" parent="1" vertex="1">
                    <mxGeometry x="570" y="310" width="80" height="20" as="geometry"/>
                </mxCell>
                <mxCell id="17" value="1.2.3.0/24" style="text;html=1;align=center;verticalAlign=middle;resizable=0;points=[];autosize=1;" parent="1" vertex="1">
                    <mxGeometry x="240" y="370" width="70" height="20" as="geometry"/>
                </mxCell>
                <mxCell id="18" value="172.17.0.0/16" style="text;html=1;align=center;verticalAlign=middle;resizable=0;points=[];autosize=1;" parent="1" vertex="1">
                    <mxGeometry x="550" y="370" width="90" height="20" as="geometry"/>
                </mxCell>
                <mxCell id="19" value="10.0.0.0/0" style="text;html=1;align=center;verticalAlign=middle;resizable=0;points=[];autosize=1;" parent="1" vertex="1">
                    <mxGeometry x="450" y="710" width="70" height="20" as="geometry"/>
                </mxCell>
                <mxCell id="21" style="edgeStyle=none;rounded=0;orthogonalLoop=1;jettySize=auto;html=1;entryX=0.4;entryY=0.1;entryDx=0;entryDy=0;entryPerimeter=0;endArrow=none;endFill=0;" parent="1" source="20" target="10" edge="1">
                    <mxGeometry relative="1" as="geometry"/>
                </mxCell>
                <mxCell id="20" value="0.0.0.0/0" style="text;html=1;align=center;verticalAlign=middle;resizable=0;points=[];autosize=1;" parent="1" vertex="1">
                    <mxGeometry x="205" y="250" width="60" height="20" as="geometry"/>
                </mxCell>
                <mxCell id="23" value="&amp;lt;service&amp;gt;&lt;br&gt;nftables-exporter" style="html=1;" vertex="1" parent="1">
                    <mxGeometry x="240" y="520" width="110" height="50" as="geometry"/>
                </mxCell>
                <mxCell id="24" value="&amp;lt;service&amp;gt;&lt;br&gt;node-exporter" style="html=1;" vertex="1" parent="1">
                    <mxGeometry x="385" y="520" width="110" height="50" as="geometry"/>
                </mxCell>
                <mxCell id="25" value="droptailer" style="html=1;" vertex="1" parent="1">
                    <mxGeometry x="530" y="520" width="110" height="50" as="geometry"/>
                </mxCell>
                <mxCell id="29" value="Worker Node" style="verticalAlign=top;align=left;spacingTop=8;spacingLeft=2;spacingRight=12;shape=cube;size=10;direction=south;fontStyle=4;html=1;" vertex="1" parent="1">
                    <mxGeometry x="330" y="760" width="180" height="120" as="geometry"/>
                </mxCell>
                <mxCell id="30" value="Worker Node" style="verticalAlign=top;align=left;spacingTop=8;spacingLeft=2;spacingRight=12;shape=cube;size=10;direction=south;fontStyle=4;html=1;" vertex="1" parent="1">
                    <mxGeometry x="575" y="760" width="180" height="120" as="geometry"/>
                </mxCell>
                <mxCell id="31" value="droptailer" style="html=1;" vertex="1" parent="1">
                    <mxGeometry x="610" y="810" width="110" height="50" as="geometry"/>
                </mxCell>
                <mxCell id="32" style="edgeStyle=orthogonalEdgeStyle;rounded=0;orthogonalLoop=1;jettySize=auto;html=1;entryX=0.75;entryY=0;entryDx=0;entryDy=0;" edge="1" parent="1" source="25" target="31">
                    <mxGeometry relative="1" as="geometry"/>
                </mxCell>
                <mxCell id="34" value="send nftables drops&lt;br&gt;&amp;lt;grpc&amp;gt;" style="edgeLabel;html=1;align=center;verticalAlign=middle;resizable=0;points=[];" vertex="1" connectable="0" parent="32">
                    <mxGeometry x="-0.3092" y="37" relative="1" as="geometry">
                        <mxPoint x="0.07000000000000028" y="-23.03" as="offset"/>
                    </mxGeometry>
                </mxCell>
            </root>
        </mxGraphModel>
    </diagram>
</mxfile>